# xmcd database file
#
# Track frame offsets:
# 150
# 92390
# 110702
# 193550
# 219014
# 228174
# 239934
# 253366
# 272430
#
# Disc length: 3744 seconds
#
# Revision: 2
# Processed by: cddbd v1.5.1PL0 Copyright (c) Steve Scherf et al.
# Submitted via: CD-Runner 2004.04
#
DISCID=790e9e09
DTITLE=Mitch Barrett - I Ain't Lyin', I'm Telling You A Story
DYEAR=2004
DGENRE=Folk
TTITLE0=Wicked John
TTITLE1=Burley
TTITLE2=Jack Gone Huntin'
TTITLE3=Sacred Yard
TTITLE4=Grow Up and Be Happy
TTITLE5=Little Feet
TTITLE6=Josh's Song
TTITLE7=Teh Teller's The Feller
TTITLE8=Appalachian Japanese Native American Flute Walk
EXTD=Mitch Barrett of Zoe Speaks offers a collection of story and music
EXTT0=
EXTT1=
EXTT2=
EXTT3=
EXTT4=
EXTT5=
EXTT6=
EXTT7=
EXTT8=
PLAYORDER=
